<svg width="574" height="228" viewBox="0 0 574 228" fill="none" xmlns="http://www.w3.org/2000/svg">
<g filter="url(#filter0_dd_213_1276)">
<g filter="url(#filter1_dd_213_1276)">
<rect x="18" y="10" width="192" height="192" rx="28" fill="white"/>
<path d="M180.5 28.5C187.127 28.5002 192.5 33.8727 192.5 40.5C192.5 47.1271 187.127 52.4998 180.5 52.5C173.613 52.5 169.017 54.0629 165.652 56.2246C162.197 58.4448 159.185 61.8502 156.389 66.8369C153.548 71.9033 151.18 78.1451 148.813 85.5859V85.5859C147.562 89.5217 150.546 93.5 154.676 93.5H181.5C188.127 93.5002 193.5 98.8727 193.5 105.5C193.5 112.127 188.127 117.5 181.5 117.5V117.5C156.045 117.5 135.519 135.375 118.981 154.725C117.562 156.385 116.063 158.002 114.478 159.568C99.3623 174.498 77.7563 183.5 46.5 183.5C39.8727 183.5 34.5002 178.127 34.5 171.5C34.5 164.873 39.8726 159.5 46.5 159.5C72.7818 159.5 87.8598 152.127 97.6123 142.494V142.494C107.7 132.531 97.7831 117.5 83.6047 117.5H66.5C59.8727 117.5 54.5002 112.127 54.5 105.5C54.5 98.8726 59.8726 93.5 66.5 93.5H118.155C120.068 93.5 121.756 92.241 122.295 90.4053V90.4053C123.472 86.3932 124.674 82.2995 125.942 78.3125C128.458 70.4021 131.41 62.3153 135.455 55.1006C139.545 47.8063 144.985 40.9771 152.679 36.0332C160.464 31.031 169.714 28.5 180.5 28.5Z" fill="black"/>
</g>
<path d="M255.955 50.6364V61.5455H223.636V50.6364H255.955ZM231.034 103V46.8523C231.034 43.0568 231.773 39.9091 233.25 37.4091C234.75 34.9091 236.795 33.0341 239.386 31.7841C241.977 30.5341 244.92 29.9091 248.216 29.9091C250.443 29.9091 252.477 30.0795 254.318 30.4205C256.182 30.7614 257.568 31.0682 258.477 31.3409L255.886 42.25C255.318 42.0682 254.614 41.8977 253.773 41.7386C252.955 41.5795 252.114 41.5 251.25 41.5C249.114 41.5 247.625 42 246.784 43C245.943 43.9773 245.523 45.3523 245.523 47.125V103H231.034ZM286.611 104.023C281.315 104.023 276.736 102.898 272.872 100.648C269.031 98.375 266.065 95.2159 263.974 91.1705C261.884 87.1023 260.838 82.3864 260.838 77.0227C260.838 71.6136 261.884 66.8864 263.974 62.8409C266.065 58.7727 269.031 55.6136 272.872 53.3636C276.736 51.0909 281.315 49.9545 286.611 49.9545C291.906 49.9545 296.474 51.0909 300.315 53.3636C304.179 55.6136 307.156 58.7727 309.247 62.8409C311.338 66.8864 312.384 71.6136 312.384 77.0227C312.384 82.3864 311.338 87.1023 309.247 91.1705C307.156 95.2159 304.179 98.375 300.315 100.648C296.474 102.898 291.906 104.023 286.611 104.023ZM286.679 92.7727C289.088 92.7727 291.099 92.0909 292.713 90.7273C294.327 89.3409 295.543 87.4545 296.361 85.0682C297.202 82.6818 297.622 79.9659 297.622 76.9205C297.622 73.875 297.202 71.1591 296.361 68.7727C295.543 66.3864 294.327 64.5 292.713 63.1136C291.099 61.7273 289.088 61.0341 286.679 61.0341C284.247 61.0341 282.202 61.7273 280.543 63.1136C278.906 64.5 277.668 66.3864 276.827 68.7727C276.009 71.1591 275.599 73.875 275.599 76.9205C275.599 79.9659 276.009 82.6818 276.827 85.0682C277.668 87.4545 278.906 89.3409 280.543 90.7273C282.202 92.0909 284.247 92.7727 286.679 92.7727ZM321.827 103V50.6364H335.906V59.7727H336.452C337.406 56.5227 339.009 54.0682 341.259 52.4091C343.509 50.7273 346.099 49.8864 349.031 49.8864C349.759 49.8864 350.543 49.9318 351.384 50.0227C352.224 50.1136 352.963 50.2386 353.599 50.3977V63.2841C352.918 63.0795 351.974 62.8977 350.77 62.7386C349.565 62.5795 348.463 62.5 347.463 62.5C345.327 62.5 343.418 62.9659 341.736 63.8977C340.077 64.8068 338.759 66.0795 337.781 67.7159C336.827 69.3523 336.349 71.2386 336.349 73.375V103H321.827ZM361.108 103V50.6364H374.949V59.875H375.562C376.653 56.8068 378.472 54.3864 381.017 52.6136C383.562 50.8409 386.608 49.9545 390.153 49.9545C393.744 49.9545 396.801 50.8523 399.324 52.6477C401.847 54.4205 403.528 56.8295 404.369 59.875H404.915C405.983 56.875 407.915 54.4773 410.71 52.6818C413.528 50.8636 416.858 49.9545 420.699 49.9545C425.585 49.9545 429.551 51.5114 432.597 54.625C435.665 57.7159 437.199 62.1023 437.199 67.7841V103H422.71V70.6477C422.71 67.7386 421.938 65.5568 420.392 64.1023C418.847 62.6477 416.915 61.9205 414.597 61.9205C411.96 61.9205 409.903 62.7614 408.426 64.4432C406.949 66.1023 406.21 68.2955 406.21 71.0227V103H392.131V70.3409C392.131 67.7727 391.392 65.7273 389.915 64.2045C388.46 62.6818 386.54 61.9205 384.153 61.9205C382.54 61.9205 381.085 62.3295 379.79 63.1477C378.517 63.9432 377.506 65.0682 376.756 66.5227C376.006 67.9545 375.631 69.6364 375.631 71.5682V103H361.108ZM463.602 103.989C460.261 103.989 457.284 103.409 454.67 102.25C452.057 101.068 449.989 99.3295 448.466 97.0341C446.966 94.7159 446.216 91.8295 446.216 88.375C446.216 85.4659 446.75 83.0227 447.818 81.0455C448.886 79.0682 450.341 77.4773 452.182 76.2727C454.023 75.0682 456.114 74.1591 458.455 73.5455C460.818 72.9318 463.295 72.5 465.886 72.25C468.932 71.9318 471.386 71.6364 473.25 71.3636C475.114 71.0682 476.466 70.6364 477.307 70.0682C478.148 69.5 478.568 68.6591 478.568 67.5455V67.3409C478.568 65.1818 477.886 63.5114 476.523 62.3295C475.182 61.1477 473.273 60.5568 470.795 60.5568C468.182 60.5568 466.102 61.1364 464.557 62.2955C463.011 63.4318 461.989 64.8636 461.489 66.5909L448.057 65.5C448.739 62.3182 450.08 59.5682 452.08 57.25C454.08 54.9091 456.659 53.1136 459.818 51.8636C463 50.5909 466.682 49.9545 470.864 49.9545C473.773 49.9545 476.557 50.2955 479.216 50.9773C481.898 51.6591 484.273 52.7159 486.341 54.1477C488.432 55.5795 490.08 57.4205 491.284 59.6705C492.489 61.8977 493.091 64.5682 493.091 67.6818V103H479.318V95.7386H478.909C478.068 97.375 476.943 98.8182 475.534 100.068C474.125 101.295 472.432 102.261 470.455 102.966C468.477 103.648 466.193 103.989 463.602 103.989ZM467.761 93.9659C469.898 93.9659 471.784 93.5455 473.42 92.7045C475.057 91.8409 476.341 90.6818 477.273 89.2273C478.205 87.7727 478.67 86.125 478.67 84.2841V78.7273C478.216 79.0227 477.591 79.2955 476.795 79.5455C476.023 79.7727 475.148 79.9886 474.17 80.1932C473.193 80.375 472.216 80.5455 471.239 80.7045C470.261 80.8409 469.375 80.9659 468.58 81.0795C466.875 81.3295 465.386 81.7273 464.114 82.2727C462.841 82.8182 461.852 83.5568 461.148 84.4886C460.443 85.3977 460.091 86.5341 460.091 87.8977C460.091 89.875 460.807 91.3864 462.239 92.4318C463.693 93.4545 465.534 93.9659 467.761 93.9659ZM518.881 33.1818V103H504.358V33.1818H518.881ZM227.795 192V139.636H241.636V148.875H242.25C243.341 145.807 245.159 143.386 247.705 141.614C250.25 139.841 253.295 138.955 256.841 138.955C260.432 138.955 263.489 139.852 266.011 141.648C268.534 143.42 270.216 145.83 271.057 148.875H271.602C272.67 145.875 274.602 143.477 277.398 141.682C280.216 139.864 283.545 138.955 287.386 138.955C292.273 138.955 296.239 140.511 299.284 143.625C302.352 146.716 303.886 151.102 303.886 156.784V192H289.398V159.648C289.398 156.739 288.625 154.557 287.08 153.102C285.534 151.648 283.602 150.92 281.284 150.92C278.648 150.92 276.591 151.761 275.114 153.443C273.636 155.102 272.898 157.295 272.898 160.023V192H258.818V159.341C258.818 156.773 258.08 154.727 256.602 153.205C255.148 151.682 253.227 150.92 250.841 150.92C249.227 150.92 247.773 151.33 246.477 152.148C245.205 152.943 244.193 154.068 243.443 155.523C242.693 156.955 242.318 158.636 242.318 160.568V192H227.795ZM315.358 192V139.636H329.881V192H315.358ZM322.653 132.886C320.494 132.886 318.642 132.17 317.097 130.739C315.574 129.284 314.812 127.545 314.812 125.523C314.812 123.523 315.574 121.807 317.097 120.375C318.642 118.92 320.494 118.193 322.653 118.193C324.813 118.193 326.653 118.92 328.176 120.375C329.722 121.807 330.494 123.523 330.494 125.523C330.494 127.545 329.722 129.284 328.176 130.739C326.653 132.17 324.813 132.886 322.653 132.886ZM356.037 161.727V192H341.514V139.636H355.355V148.875H355.969C357.128 145.83 359.071 143.42 361.798 141.648C364.526 139.852 367.832 138.955 371.719 138.955C375.355 138.955 378.526 139.75 381.23 141.341C383.935 142.932 386.037 145.205 387.537 148.159C389.037 151.091 389.787 154.591 389.787 158.659V192H375.264V161.25C375.287 158.045 374.469 155.545 372.81 153.75C371.151 151.932 368.866 151.023 365.957 151.023C364.003 151.023 362.276 151.443 360.776 152.284C359.298 153.125 358.139 154.352 357.298 155.966C356.48 157.557 356.06 159.477 356.037 161.727ZM420.528 192.852C416.551 192.852 412.949 191.83 409.722 189.784C406.517 187.716 403.972 184.682 402.085 180.682C400.222 176.659 399.29 171.727 399.29 165.886C399.29 159.886 400.256 154.898 402.188 150.92C404.119 146.92 406.688 143.932 409.892 141.955C413.119 139.955 416.653 138.955 420.494 138.955C423.426 138.955 425.869 139.455 427.824 140.455C429.801 141.432 431.392 142.659 432.597 144.136C433.824 145.591 434.756 147.023 435.392 148.432H435.835V122.182H450.324V192H436.006V183.614H435.392C434.71 185.068 433.744 186.511 432.494 187.943C431.267 189.352 429.665 190.523 427.688 191.455C425.733 192.386 423.347 192.852 420.528 192.852ZM425.131 181.295C427.472 181.295 429.449 180.659 431.062 179.386C432.699 178.091 433.949 176.284 434.812 173.966C435.699 171.648 436.142 168.932 436.142 165.818C436.142 162.705 435.71 160 434.847 157.705C433.983 155.409 432.733 153.636 431.097 152.386C429.46 151.136 427.472 150.511 425.131 150.511C422.744 150.511 420.733 151.159 419.097 152.455C417.46 153.75 416.222 155.545 415.381 157.841C414.54 160.136 414.119 162.795 414.119 165.818C414.119 168.864 414.54 171.557 415.381 173.898C416.244 176.216 417.483 178.034 419.097 179.352C420.733 180.648 422.744 181.295 425.131 181.295ZM499.415 192.989C496.074 192.989 493.097 192.409 490.483 191.25C487.869 190.068 485.801 188.33 484.278 186.034C482.778 183.716 482.028 180.83 482.028 177.375C482.028 174.466 482.563 172.023 483.631 170.045C484.699 168.068 486.153 166.477 487.994 165.273C489.835 164.068 491.926 163.159 494.267 162.545C496.631 161.932 499.108 161.5 501.699 161.25C504.744 160.932 507.199 160.636 509.062 160.364C510.926 160.068 512.278 159.636 513.119 159.068C513.96 158.5 514.381 157.659 514.381 156.545V156.341C514.381 154.182 513.699 152.511 512.335 151.33C510.994 150.148 509.085 149.557 506.608 149.557C503.994 149.557 501.915 150.136 500.369 151.295C498.824 152.432 497.801 153.864 497.301 155.591L483.869 154.5C484.551 151.318 485.892 148.568 487.892 146.25C489.892 143.909 492.472 142.114 495.631 140.864C498.813 139.591 502.494 138.955 506.676 138.955C509.585 138.955 512.369 139.295 515.028 139.977C517.71 140.659 520.085 141.716 522.153 143.148C524.244 144.58 525.892 146.42 527.097 148.67C528.301 150.898 528.903 153.568 528.903 156.682V192H515.131V184.739H514.722C513.881 186.375 512.756 187.818 511.347 189.068C509.938 190.295 508.244 191.261 506.267 191.966C504.29 192.648 502.006 192.989 499.415 192.989ZM503.574 182.966C505.71 182.966 507.597 182.545 509.233 181.705C510.869 180.841 512.153 179.682 513.085 178.227C514.017 176.773 514.483 175.125 514.483 173.284V167.727C514.028 168.023 513.403 168.295 512.608 168.545C511.835 168.773 510.96 168.989 509.983 169.193C509.006 169.375 508.028 169.545 507.051 169.705C506.074 169.841 505.188 169.966 504.392 170.08C502.688 170.33 501.199 170.727 499.926 171.273C498.653 171.818 497.665 172.557 496.96 173.489C496.256 174.398 495.903 175.534 495.903 176.898C495.903 178.875 496.619 180.386 498.051 181.432C499.506 182.455 501.347 182.966 503.574 182.966ZM540.17 192V139.636H554.693V192H540.17ZM547.466 132.886C545.307 132.886 543.455 132.17 541.909 130.739C540.386 129.284 539.625 127.545 539.625 125.523C539.625 123.523 540.386 121.807 541.909 120.375C543.455 118.92 545.307 118.193 547.466 118.193C549.625 118.193 551.466 118.92 552.989 120.375C554.534 121.807 555.307 123.523 555.307 125.523C555.307 127.545 554.534 129.284 552.989 130.739C551.466 132.17 549.625 132.886 547.466 132.886Z" fill="white"/>
</g>
<defs>
<filter id="filter0_dd_213_1276" x="0" y="0" width="579" height="228" filterUnits="userSpaceOnUse" color-interpolation-filters="sRGB">
<feFlood flood-opacity="0" result="BackgroundImageFix"/>
<feColorMatrix in="SourceAlpha" type="matrix" values="0 0 0 0 0 0 0 0 0 0 0 0 0 0 0 0 0 0 127 0" result="hardAlpha"/>
<feOffset dy="4"/>
<feGaussianBlur stdDeviation="2"/>
<feColorMatrix type="matrix" values="0 0 0 0 0 0 0 0 0 0 0 0 0 0 0 0 0 0 0.3 0"/>
<feBlend mode="normal" in2="BackgroundImageFix" result="effect1_dropShadow_213_1276"/>
<feColorMatrix in="SourceAlpha" type="matrix" values="0 0 0 0 0 0 0 0 0 0 0 0 0 0 0 0 0 0 127 0" result="hardAlpha"/>
<feMorphology radius="6" operator="dilate" in="SourceAlpha" result="effect2_dropShadow_213_1276"/>
<feOffset dy="8"/>
<feGaussianBlur stdDeviation="6"/>
<feColorMatrix type="matrix" values="0 0 0 0 0 0 0 0 0 0 0 0 0 0 0 0 0 0 0.15 0"/>
<feBlend mode="normal" in2="effect1_dropShadow_213_1276" result="effect2_dropShadow_213_1276"/>
<feBlend mode="normal" in="SourceGraphic" in2="effect2_dropShadow_213_1276" result="shape"/>
</filter>
<filter id="filter1_dd_213_1276" x="0" y="0" width="228" height="228" filterUnits="userSpaceOnUse" color-interpolation-filters="sRGB">
<feFlood flood-opacity="0" result="BackgroundImageFix"/>
<feColorMatrix in="SourceAlpha" type="matrix" values="0 0 0 0 0 0 0 0 0 0 0 0 0 0 0 0 0 0 127 0" result="hardAlpha"/>
<feOffset dy="4"/>
<feGaussianBlur stdDeviation="2"/>
<feColorMatrix type="matrix" values="0 0 0 0 0 0 0 0 0 0 0 0 0 0 0 0 0 0 0.3 0"/>
<feBlend mode="normal" in2="BackgroundImageFix" result="effect1_dropShadow_213_1276"/>
<feColorMatrix in="SourceAlpha" type="matrix" values="0 0 0 0 0 0 0 0 0 0 0 0 0 0 0 0 0 0 127 0" result="hardAlpha"/>
<feMorphology radius="6" operator="dilate" in="SourceAlpha" result="effect2_dropShadow_213_1276"/>
<feOffset dy="8"/>
<feGaussianBlur stdDeviation="6"/>
<feColorMatrix type="matrix" values="0 0 0 0 0 0 0 0 0 0 0 0 0 0 0 0 0 0 0.15 0"/>
<feBlend mode="normal" in2="effect1_dropShadow_213_1276" result="effect2_dropShadow_213_1276"/>
<feBlend mode="normal" in="SourceGraphic" in2="effect2_dropShadow_213_1276" result="shape"/>
</filter>
</defs>
</svg>
