<svg width="500" height="547" viewBox="0 0 500 547" xmlns="http://www.w3.org/2000/svg">
<path d="M424.781 66.0493C442.454 66.0493 456.781 80.3762 456.781 98.0493C456.781 115.722 442.454 130.049 424.781 130.049C408.111 130.049 397.183 133.821 389.283 138.894C381.141 144.122 373.922 152.212 367.13 164.317C360.219 176.634 354.417 191.887 348.576 210.239V210.239C344.603 222.721 354.101 235.335 367.2 235.335H426.077L426.696 235.343C439.664 235.672 450.077 246.288 450.077 259.335C450.077 272.383 439.664 282.999 426.696 283.328L426.077 283.335V283.335C366.431 283.335 318.06 324.793 282.064 372.354C276.335 379.924 270.023 387.216 263.032 394.116C225.115 431.54 171.03 453.951 93.2192 453.951C75.5464 453.951 61.2197 439.623 61.2192 421.951C61.2192 404.278 75.5462 389.951 93.2192 389.951C157.778 389.951 194.459 371.873 218.074 348.566V348.566C244.419 322.563 218.052 283.335 181.035 283.335H141.276C128.021 283.335 117.276 272.59 117.276 259.335C117.276 246.081 128.021 235.335 141.276 235.335H259.078C268.082 235.335 276.012 229.419 278.548 220.779V220.779C281.46 210.862 284.443 200.716 287.59 190.829C293.83 171.224 301.189 151.049 311.316 133C321.562 114.74 335.258 97.5251 354.704 85.0396C374.39 72.3993 397.722 66.0494 424.781 66.0493Z"/>
<path d="M120.585 521V518.239C120.585 517.455 120.738 516.653 121.045 515.835C121.352 515.017 121.757 514.246 122.26 513.521C122.763 512.797 123.308 512.192 123.896 511.706L126.3 513.125C125.822 513.875 125.43 514.659 125.123 515.477C124.825 516.295 124.676 517.207 124.676 518.213V521H120.585ZM127.041 521V518.239C127.041 517.455 127.194 516.653 127.501 515.835C127.808 515.017 128.213 514.246 128.716 513.521C129.219 512.797 129.764 512.192 130.352 511.706L132.756 513.125C132.278 513.875 131.886 514.659 131.579 515.477C131.281 516.295 131.132 517.207 131.132 518.213V521H127.041ZM157.966 512.818V539H153.184L141.794 522.521H141.602V539H136.067V512.818H140.925L152.226 529.284H152.456V512.818H157.966ZM171.309 539.384C169.323 539.384 167.606 538.962 166.157 538.118C164.717 537.266 163.605 536.081 162.82 534.564C162.036 533.038 161.644 531.27 161.644 529.259C161.644 527.23 162.036 525.457 162.82 523.94C163.605 522.415 164.717 521.23 166.157 520.386C167.606 519.534 169.323 519.108 171.309 519.108C173.295 519.108 175.008 519.534 176.448 520.386C177.897 521.23 179.014 522.415 179.798 523.94C180.582 525.457 180.974 527.23 180.974 529.259C180.974 531.27 180.582 533.038 179.798 534.564C179.014 536.081 177.897 537.266 176.448 538.118C175.008 538.962 173.295 539.384 171.309 539.384ZM171.335 535.165C172.238 535.165 172.992 534.909 173.597 534.398C174.203 533.878 174.659 533.17 174.965 532.276C175.281 531.381 175.438 530.362 175.438 529.22C175.438 528.078 175.281 527.06 174.965 526.165C174.659 525.27 174.203 524.562 173.597 524.043C172.992 523.523 172.238 523.263 171.335 523.263C170.423 523.263 169.656 523.523 169.034 524.043C168.42 524.562 167.955 525.27 167.64 526.165C167.333 527.06 167.18 528.078 167.18 529.22C167.18 530.362 167.333 531.381 167.64 532.276C167.955 533.17 168.42 533.878 169.034 534.398C169.656 534.909 170.423 535.165 171.335 535.165ZM194.96 519.364V523.455H183.134V519.364H194.96ZM185.819 514.659H191.265V532.966C191.265 533.469 191.342 533.861 191.495 534.142C191.649 534.415 191.862 534.607 192.134 534.717C192.416 534.828 192.74 534.884 193.106 534.884C193.362 534.884 193.617 534.862 193.873 534.82C194.129 534.768 194.325 534.73 194.461 534.705L195.318 538.757C195.045 538.842 194.661 538.94 194.167 539.051C193.673 539.17 193.072 539.243 192.365 539.268C191.052 539.32 189.901 539.145 188.913 538.744C187.933 538.344 187.17 537.722 186.624 536.878C186.079 536.034 185.811 534.969 185.819 533.682V514.659ZM204.375 527.648V539H198.929V512.818H204.222V522.828H204.452C204.895 521.669 205.611 520.761 206.6 520.105C207.588 519.44 208.828 519.108 210.32 519.108C211.683 519.108 212.872 519.406 213.887 520.003C214.909 520.591 215.702 521.439 216.264 522.547C216.835 523.646 217.117 524.963 217.108 526.497V539H211.662V527.469C211.671 526.259 211.364 525.317 210.742 524.643C210.128 523.97 209.267 523.634 208.159 523.634C207.418 523.634 206.762 523.791 206.191 524.107C205.628 524.422 205.185 524.882 204.861 525.487C204.546 526.084 204.384 526.804 204.375 527.648ZM221.394 539V519.364H226.84V539H221.394ZM224.13 516.832C223.32 516.832 222.626 516.564 222.046 516.027C221.475 515.482 221.189 514.83 221.189 514.071C221.189 513.321 221.475 512.678 222.046 512.141C222.626 511.595 223.32 511.322 224.13 511.322C224.939 511.322 225.63 511.595 226.201 512.141C226.78 512.678 227.07 513.321 227.07 514.071C227.07 514.83 226.78 515.482 226.201 516.027C225.63 516.564 224.939 516.832 224.13 516.832ZM236.649 527.648V539H231.203V519.364H236.393V522.828H236.623C237.058 521.686 237.786 520.783 238.809 520.118C239.832 519.445 241.072 519.108 242.529 519.108C243.893 519.108 245.082 519.406 246.096 520.003C247.11 520.599 247.899 521.452 248.461 522.56C249.024 523.659 249.305 524.972 249.305 526.497V539H243.859V527.469C243.867 526.267 243.561 525.33 242.938 524.656C242.316 523.974 241.46 523.634 240.369 523.634C239.636 523.634 238.988 523.791 238.426 524.107C237.872 524.422 237.437 524.882 237.122 525.487C236.815 526.084 236.657 526.804 236.649 527.648ZM262.444 546.773C260.68 546.773 259.167 546.53 257.905 546.044C256.653 545.567 255.655 544.915 254.914 544.088C254.172 543.261 253.691 542.332 253.469 541.301L258.506 540.624C258.66 541.016 258.903 541.382 259.235 541.723C259.567 542.064 260.006 542.337 260.552 542.541C261.106 542.754 261.779 542.861 262.572 542.861C263.756 542.861 264.732 542.571 265.499 541.991C266.275 541.42 266.662 540.462 266.662 539.115V535.523H266.432C266.194 536.068 265.836 536.584 265.358 537.07C264.881 537.555 264.268 537.952 263.518 538.259C262.768 538.565 261.873 538.719 260.833 538.719C259.358 538.719 258.016 538.378 256.806 537.696C255.604 537.006 254.645 535.953 253.93 534.538C253.222 533.115 252.868 531.317 252.868 529.143C252.868 526.919 253.231 525.061 253.955 523.57C254.68 522.078 255.643 520.962 256.844 520.22C258.055 519.479 259.38 519.108 260.82 519.108C261.92 519.108 262.84 519.295 263.581 519.67C264.323 520.037 264.92 520.497 265.371 521.051C265.831 521.597 266.185 522.134 266.432 522.662H266.637V519.364H272.045V539.192C272.045 540.862 271.635 542.26 270.817 543.385C269.999 544.51 268.866 545.354 267.417 545.916C265.976 546.487 264.319 546.773 262.444 546.773ZM262.559 534.628C263.437 534.628 264.178 534.411 264.783 533.976C265.397 533.533 265.866 532.902 266.189 532.084C266.522 531.257 266.688 530.268 266.688 529.118C266.688 527.967 266.526 526.97 266.202 526.126C265.878 525.274 265.41 524.614 264.796 524.145C264.182 523.676 263.437 523.442 262.559 523.442C261.664 523.442 260.91 523.685 260.296 524.17C259.682 524.648 259.218 525.312 258.903 526.165C258.587 527.017 258.43 528.001 258.43 529.118C258.43 530.251 258.587 531.232 258.903 532.058C259.226 532.876 259.691 533.511 260.296 533.963C260.91 534.406 261.664 534.628 262.559 534.628ZM284.813 539V512.818H290.348V523.621H301.585V512.818H307.108V539H301.585V528.185H290.348V539H284.813ZM320.519 539.384C318.499 539.384 316.76 538.974 315.303 538.156C313.854 537.33 312.737 536.162 311.953 534.653C311.169 533.136 310.777 531.342 310.777 529.271C310.777 527.251 311.169 525.479 311.953 523.953C312.737 522.428 313.841 521.239 315.264 520.386C316.696 519.534 318.375 519.108 320.301 519.108C321.597 519.108 322.803 519.317 323.919 519.734C325.044 520.143 326.024 520.761 326.86 521.588C327.703 522.415 328.36 523.455 328.828 524.707C329.297 525.952 329.531 527.409 329.531 529.08V530.575H312.95V527.2H324.405C324.405 526.416 324.235 525.722 323.894 525.116C323.553 524.511 323.08 524.038 322.475 523.697C321.878 523.348 321.183 523.173 320.391 523.173C319.564 523.173 318.831 523.365 318.192 523.749C317.561 524.124 317.067 524.631 316.709 525.27C316.351 525.901 316.168 526.604 316.159 527.379V530.588C316.159 531.56 316.338 532.399 316.696 533.107C317.063 533.814 317.578 534.359 318.243 534.743C318.908 535.126 319.696 535.318 320.608 535.318C321.213 535.318 321.767 535.233 322.27 535.062C322.773 534.892 323.203 534.636 323.561 534.295C323.919 533.955 324.192 533.537 324.379 533.043L329.416 533.375C329.161 534.585 328.637 535.642 327.844 536.545C327.06 537.44 326.046 538.139 324.801 538.642C323.566 539.136 322.138 539.384 320.519 539.384ZM333.085 539V519.364H338.365V522.79H338.57C338.928 521.571 339.529 520.651 340.372 520.028C341.216 519.398 342.188 519.082 343.287 519.082C343.56 519.082 343.854 519.099 344.169 519.134C344.485 519.168 344.762 519.214 345 519.274V524.107C344.744 524.03 344.391 523.962 343.939 523.902C343.487 523.842 343.074 523.812 342.699 523.812C341.898 523.812 341.182 523.987 340.551 524.337C339.929 524.678 339.435 525.155 339.068 525.768C338.71 526.382 338.531 527.089 338.531 527.891V539H333.085ZM355.851 539.384C353.831 539.384 352.092 538.974 350.635 538.156C349.186 537.33 348.069 536.162 347.285 534.653C346.501 533.136 346.109 531.342 346.109 529.271C346.109 527.251 346.501 525.479 347.285 523.953C348.069 522.428 349.173 521.239 350.596 520.386C352.028 519.534 353.707 519.108 355.633 519.108C356.929 519.108 358.135 519.317 359.251 519.734C360.376 520.143 361.356 520.761 362.192 521.588C363.035 522.415 363.692 523.455 364.16 524.707C364.629 525.952 364.863 527.409 364.863 529.08V530.575H348.282V527.2H359.737C359.737 526.416 359.567 525.722 359.226 525.116C358.885 524.511 358.412 524.038 357.807 523.697C357.21 523.348 356.515 523.173 355.723 523.173C354.896 523.173 354.163 523.365 353.524 523.749C352.893 524.124 352.399 524.631 352.041 525.27C351.683 525.901 351.5 526.604 351.491 527.379V530.588C351.491 531.56 351.67 532.399 352.028 533.107C352.395 533.814 352.91 534.359 353.575 534.743C354.24 535.126 355.028 535.318 355.94 535.318C356.545 535.318 357.099 535.233 357.602 535.062C358.105 534.892 358.535 534.636 358.893 534.295C359.251 533.955 359.524 533.537 359.711 533.043L364.748 533.375C364.493 534.585 363.969 535.642 363.176 536.545C362.392 537.44 361.378 538.139 360.133 538.642C358.898 539.136 357.47 539.384 355.851 539.384ZM372.981 512.818V515.58C372.981 516.364 372.828 517.165 372.521 517.983C372.223 518.793 371.822 519.56 371.319 520.284C370.817 521 370.267 521.609 369.67 522.112L367.267 520.693C367.693 520.02 368.068 519.274 368.392 518.456C368.724 517.638 368.89 516.687 368.89 515.605V512.818H372.981ZM379.412 512.818V515.58C379.412 516.364 379.258 517.165 378.952 517.983C378.653 518.793 378.253 519.56 377.75 520.284C377.247 521 376.693 521.609 376.088 522.112L373.684 520.693C374.119 520.02 374.498 519.274 374.822 518.456C375.155 517.638 375.321 516.687 375.321 515.605V512.818H379.412Z"/>
</svg>
