<svg width="500" height="500" viewBox="0 0 500 500" fill="none" xmlns="http://www.w3.org/2000/svg">
<rect width="500" height="500" rx="48" fill="black"/>
<path d="M424.781 66.0493C442.454 66.0493 456.781 80.3762 456.781 98.0493C456.781 115.722 442.454 130.049 424.781 130.049C408.111 130.049 397.183 133.821 389.283 138.894C381.141 144.122 373.922 152.212 367.13 164.317C360.219 176.634 354.417 191.887 348.576 210.239V210.239C344.603 222.721 354.101 235.335 367.2 235.335H426.077L426.696 235.343C439.664 235.672 450.077 246.288 450.077 259.335C450.077 272.383 439.664 282.999 426.696 283.328L426.077 283.335V283.335C366.431 283.335 318.06 324.793 282.064 372.354C276.335 379.924 270.023 387.216 263.032 394.116C225.115 431.54 171.03 453.951 93.2192 453.951C75.5464 453.951 61.2197 439.623 61.2192 421.951C61.2192 404.278 75.5462 389.951 93.2192 389.951C157.778 389.951 194.459 371.873 218.074 348.566V348.566C244.419 322.563 218.052 283.335 181.035 283.335H141.276C128.021 283.335 117.276 272.59 117.276 259.335C117.276 246.081 128.021 235.335 141.276 235.335H259.078C268.082 235.335 276.012 229.419 278.548 220.779V220.779C281.46 210.862 284.443 200.716 287.59 190.829C293.83 171.224 301.189 151.049 311.316 133C321.562 114.74 335.258 97.5251 354.704 85.0396C374.39 72.3993 397.722 66.0494 424.781 66.0493Z" fill="white"/>
</svg>
