<svg width="396" height="388" viewBox="0 0 396 388" fill="none" xmlns="http://www.w3.org/2000/svg">
<path d="M363.781 0.0493164C381.454 0.0493164 395.781 14.3762 395.781 32.0493C395.781 49.7222 381.454 64.0493 363.781 64.0493C347.111 64.0494 336.183 67.8213 328.283 72.894C320.141 78.1217 312.922 86.2122 306.13 98.3169C299.219 110.634 293.417 125.887 287.576 144.239V144.239C283.603 156.721 293.101 169.335 306.2 169.335H365.077L365.696 169.343C378.664 169.672 389.077 180.288 389.077 193.335C389.077 206.383 378.664 216.999 365.696 217.328L365.077 217.335V217.335C305.431 217.335 257.06 258.793 221.064 306.354C215.335 313.924 209.023 321.216 202.032 328.116C164.115 365.54 110.03 387.951 32.2192 387.951C14.5464 387.951 0.219669 373.623 0.219238 355.951C0.219238 338.278 14.5462 323.951 32.2192 323.951C96.778 323.951 133.459 305.873 157.074 282.566V282.566C183.419 256.563 157.052 217.335 120.035 217.335H80.2759C67.021 217.335 56.2759 206.59 56.2759 193.335C56.2759 180.081 67.0211 169.335 80.2759 169.335H198.078C207.082 169.335 215.012 163.419 217.548 154.779V154.779C220.46 144.862 223.443 134.716 226.59 124.829C232.83 105.224 240.189 85.0486 250.316 67.0005C260.562 48.7398 274.258 31.5251 293.704 19.0396C313.39 6.39928 336.722 0.0493933 363.781 0.0493164Z" fill="black"/>
</svg>
